<svg width="155" height="154" viewBox="0 0 155 154" fill="none" xmlns="http://www.w3.org/2000/svg">
<ellipse cx="77.0824" cy="77" rx="77.0824" ry="77" fill="#F1F3F9"/>
<mask id="mask0_43_558" style="mask-type:alpha" maskUnits="userSpaceOnUse" x="0" y="0" width="155" height="154">
<ellipse cx="77.0824" cy="77" rx="77.0824" ry="77" fill="#F1F3F9"/>
</mask>
<g mask="url(#mask0_43_558)">
<path d="M130.019 131.333C130.019 156.866 106.11 177.564 76.6182 177.564C47.126 177.564 23.2178 156.866 23.2178 131.333C23.2178 105.8 47.126 85.1021 76.6182 85.1021C106.11 85.1021 130.019 105.8 130.019 131.333Z" fill="#D9D9D9"/>
<mask id="mask1_43_558" style="mask-type:alpha" maskUnits="userSpaceOnUse" x="24" y="83" width="105" height="94">
<path d="M128.594 129.91C128.594 155.443 105.324 176.141 76.6178 176.141C47.912 176.141 24.6414 155.443 24.6414 129.91C24.6414 104.377 47.912 83.6792 76.6178 83.6792C105.324 83.6792 128.594 104.377 128.594 129.91Z" fill="#F1F3F9"/>
</mask>
<g mask="url(#mask1_43_558)">
<ellipse cx="76.6177" cy="70.8768" rx="30.6162" ry="31.2948" fill="#F1F3F9"/>
</g>
<ellipse cx="76.6182" cy="63.7645" rx="30.6162" ry="31.2948" fill="#D9D9D9"/>
</g>
</svg>
