<svg width="21" height="20" viewBox="0 0 21 20" fill="none" xmlns="http://www.w3.org/2000/svg">
<path d="M9.06217 2C5.38817 2 2.39551 4.99266 2.39551 8.66667C2.39551 12.3407 5.38817 15.3333 9.06217 15.3333C10.6598 15.3333 12.1271 14.766 13.277 13.8242L17.2575 17.8047C17.3189 17.8687 17.3925 17.9198 17.4739 17.9549C17.5553 17.9901 17.643 18.0087 17.7317 18.0096C17.8203 18.0105 17.9083 17.9937 17.9904 17.9602C18.0726 17.9267 18.1472 17.8771 18.2099 17.8144C18.2726 17.7517 18.3222 17.6771 18.3557 17.5949C18.3892 17.5128 18.406 17.4248 18.4051 17.3361C18.4042 17.2474 18.3856 17.1598 18.3505 17.0784C18.3153 16.997 18.2642 16.9234 18.2002 16.862L14.2197 12.8815C15.1615 11.7316 15.7288 10.2643 15.7288 8.66667C15.7288 4.99266 12.7362 2 9.06217 2ZM9.06217 3.33333C12.0156 3.33333 14.3955 5.71325 14.3955 8.66667C14.3955 11.6201 12.0156 14 9.06217 14C6.10876 14 3.72884 11.6201 3.72884 8.66667C3.72884 5.71325 6.10876 3.33333 9.06217 3.33333Z" fill="black"/>
</svg>
