<svg width="656" height="843" viewBox="0 0 656 843" fill="none" xmlns="http://www.w3.org/2000/svg">
<path d="M468.394 842.357C392.148 842.357 330.338 807.604 330.338 764.734C330.338 721.865 392.148 687.112 468.394 687.112C544.64 687.112 606.45 721.865 606.45 764.734C606.45 807.604 544.64 842.357 468.394 842.357Z" fill="#E0E0E0"/>
<path d="M450.353 359.947C453.535 348.055 425.03 316.479 396.01 339.351C369.528 360.234 391.798 395.965 413.113 395.821C434.427 395.678 450.353 359.947 450.353 359.947Z" fill="#3565AD"/>
<path d="M412.929 387.851C402.005 387.35 386.134 374.383 395.384 359.016C402.998 346.371 418.262 347.356 425.085 354.628C431.908 361.9 430.951 373.577 430.951 373.577L412.929 387.851Z" fill="#81B0DA"/>
<path d="M318.661 526.087L148.533 303.171" stroke="#263238" stroke-linecap="round" stroke-linejoin="round"/>
<path d="M197.767 339.282L321.24 528.084L223.326 324.304" stroke="#263238" stroke-linecap="round" stroke-linejoin="round"/>
<path d="M292.89 338.629L321.315 528.084L353.634 371.466" stroke="#263238" stroke-linecap="round" stroke-linejoin="round"/>
<path d="M169.319 390.313L313.617 523.529L163.385 346.86" stroke="#263238" stroke-linecap="round" stroke-linejoin="round"/>
<path d="M233.478 280.449L318.418 526.108L408.855 342.185" stroke="#263238" stroke-linecap="round" stroke-linejoin="round"/>
<path d="M319.74 520.492L326.354 316.915" stroke="#263238" stroke-linecap="round" stroke-linejoin="round"/>
<path d="M362.592 290.187C360.384 322.136 330.347 372.881 297.703 371.124C265.058 369.366 241.397 315.751 244.313 283.834C248.148 242.554 275.225 220.59 307.88 222.326C340.536 224.063 365.297 250.804 362.592 290.187Z" fill="#3565AD" stroke="#263238" stroke-linecap="round" stroke-linejoin="round"/>
<path d="M442.241 242.362C435.794 273.801 399.237 320.322 367.179 314.392C335.12 308.463 318.884 252.206 326.111 220.914C335.434 180.417 365.181 162.096 397.25 168.005C429.32 173.914 450.222 203.606 442.241 242.362Z" fill="#3565AD" stroke="#263238" stroke-linecap="round" stroke-linejoin="round"/>
<path d="M435.733 222.095C434.689 231.136 427.188 237.814 418.973 237.012C410.758 236.211 404.838 228.173 405.988 219.185C407.138 210.196 414.544 203.445 422.759 204.247C430.974 205.048 436.776 213.054 435.733 222.095Z" fill="white"/>
<path d="M234.63 144.745C245.685 174.802 238.555 232.813 207.71 243.941C176.864 255.068 133.194 215.33 122.936 185.031C109.653 145.876 125.696 115.255 156.541 104.128C187.387 93.0007 221.104 107.74 234.63 144.745Z" fill="#3565AD" stroke="#263238" stroke-linecap="round" stroke-linejoin="round"/>
<path d="M404.829 166.6C398.361 198.028 361.825 244.56 329.734 238.64C297.643 232.721 281.515 176.464 288.678 145.14C298.044 104.613 327.748 86.3227 359.817 92.2316C391.887 98.1405 412.777 127.854 404.829 166.6Z" fill="#3565AD" stroke="#263238" stroke-linecap="round" stroke-linejoin="round"/>
<path d="M397.456 142.358C396.412 151.399 388.912 158.077 380.696 157.276C372.481 156.474 366.668 148.489 367.711 139.448C368.755 130.407 376.245 123.698 384.45 124.52C392.654 125.343 398.489 133.286 397.456 142.358Z" fill="white"/>
<path d="M311.39 183.472C313.944 215.346 291.659 269.714 259.03 272.613C226.402 275.511 195.046 225.908 193.234 193.951C190.936 152.649 214.528 127.112 247.156 124.214C279.785 121.315 308.25 144.183 311.39 183.472Z" fill="#263238" stroke="#263238" stroke-linecap="round" stroke-linejoin="round"/>
<path d="M287.723 164.499C286.679 173.54 279.179 180.217 270.963 179.416C262.748 178.615 256.829 170.577 257.99 161.568C259.151 152.558 266.534 145.849 274.749 146.651C282.965 147.452 288.778 155.437 287.723 164.499Z" fill="#696969"/>
<path d="M429.643 329.815C420.344 360.611 379.728 403.783 348.374 395.086C317.019 386.389 306.022 328.838 316.079 298.283C329.066 258.724 360.34 243.057 391.695 251.754C423.049 260.451 441.151 291.796 429.643 329.815Z" fill="#263238" stroke="#263238" stroke-linecap="round" stroke-linejoin="round"/>
<path d="M361.656 235.671C359.051 267.609 328.335 317.965 295.739 315.809C263.143 313.653 240.173 259.745 243.549 227.871C247.919 186.644 275.28 165.006 307.875 167.214C340.47 169.423 364.919 196.247 361.656 235.671Z" fill="#3565AD" stroke="#263238" stroke-linecap="round" stroke-linejoin="round"/>
<path d="M344.451 211.637C343.407 220.678 335.907 227.356 327.692 226.554C319.476 225.753 313.557 217.715 314.718 208.706C315.879 199.696 323.241 192.977 331.456 193.778C339.672 194.58 345.452 202.628 344.451 211.637Z" fill="white"/>
<path d="M206.369 231.805C220.06 260.736 218.279 319.095 188.531 332.828C158.783 346.56 111.564 310.749 98.6386 281.588C81.8374 243.757 94.9706 211.881 124.815 198.169C154.659 184.458 189.538 196.178 206.369 231.805Z" fill="#3565AD" stroke="#263238" stroke-linecap="round" stroke-linejoin="round"/>
<path d="M161.535 299.266C183.844 322.44 200.788 378.244 176.787 400.344C152.786 422.444 96.3621 402.99 74.6182 379.302C46.5155 348.649 48.95 314.442 72.951 292.342C96.952 270.243 134.093 270.577 161.535 299.266Z" fill="#263238" stroke="#263238" stroke-linecap="round" stroke-linejoin="round"/>
<path d="M133.546 313.043C138.151 320.884 136.068 330.579 128.877 334.668C121.687 338.757 112.221 335.73 107.53 327.846C102.839 319.963 105.029 310.32 112.22 306.231C119.41 302.142 128.962 305.212 133.546 313.043Z" fill="#696969"/>
<path d="M253.814 247.344C267.505 276.274 265.723 334.634 235.964 348.388C206.206 362.141 158.998 326.309 146.051 297.137C129.271 259.317 142.394 227.409 172.238 213.698C202.083 199.986 236.941 211.696 253.814 247.344Z" fill="#3565AD" stroke="#263238" stroke-linecap="round" stroke-linejoin="round"/>
<path d="M238.804 244.917C240.765 253.804 235.833 262.436 227.752 264.236C219.672 266.036 211.51 260.325 209.558 251.469C207.606 242.613 212.54 233.929 220.62 232.129C228.701 230.329 236.863 236.04 238.804 244.917Z" fill="white"/>
<path d="M456.073 508.44C452.394 494.793 424.625 505.449 391.449 512.739C369.126 517.605 346.113 518.719 323.405 516.034C311.984 515.354 295.544 533.568 301.336 558.714C308.876 591.149 335.211 586.027 335.211 586.027C356.369 582.536 377.025 576.608 396.745 568.368C435.144 551.944 460.155 523.377 456.073 508.44Z" fill="#3565AD"/>
<path d="M484.651 593.084C488.329 625.823 457.268 733.231 442.537 756.8C433.213 766.203 393.251 761.296 391.541 745.965C391.541 745.965 393.269 711.935 389.334 692.861C386.355 679.696 382.303 666.784 377.215 654.247C377.215 654.247 456.44 663.291 484.651 593.084Z" fill="#3565AD"/>
<path opacity="0.2" d="M391.835 721.052C409.232 721.052 416.497 732.084 416.497 732.084C409.019 728.049 400.362 726.591 391.927 727.947C391.927 725.744 391.927 723.416 391.835 721.052Z" fill="black"/>
<path d="M442.537 756.8C437.462 763.14 424.809 771.433 400.24 769.857C376.093 768.316 365.022 760.902 362.043 751.463C361.638 745.785 361.362 736.186 375.247 731.762C380.622 729.984 386.167 728.736 391.798 728.037L442.537 756.8Z" fill="#3565AD"/>
<path d="M569.375 605.889C581.145 636.784 577.614 748.329 569.173 774.657C562.442 785.994 522.461 790.633 516.981 776.161C516.981 776.161 510.618 749.69 502.066 732.174C497.039 721.759 489.851 712.471 480.954 704.897C480.954 704.897 559.426 680.575 569.375 605.889Z" fill="#3565AD"/>
<path opacity="0.2" d="M511.961 758.126L509.827 751.553C536.843 749.296 546.921 765.881 546.921 765.881C541.716 762.621 525.551 754.221 511.961 758.126Z" fill="black"/>
<path d="M572.483 627.991C569.007 674.163 538.093 693.309 509.055 700.706C496.36 703.861 483.275 705.277 470.178 704.915C442.077 704.18 391.1 697.446 375.045 648.319C374.107 645.345 373.206 642.283 372.562 639.023C360.241 581.406 407.026 550.028 407.026 550.028C418.483 504.267 447.024 491.139 470.509 491.909C523.124 493.611 577.669 558.642 572.483 627.991Z" fill="#3565AD"/>
<path d="M576.161 627.005C568.492 672.712 538.093 693.273 509.055 700.706C496.359 703.861 483.275 705.277 470.178 704.915C442.077 704.18 391.099 697.446 375.045 648.319C374.107 645.345 373.206 642.283 372.562 639.023C360.24 581.406 407.025 550.028 407.025 550.028C418.483 504.267 447.024 491.139 470.509 491.909C523.123 493.611 588.317 554.559 576.161 627.005Z" fill="#3565AD"/>
<path opacity="0.1" d="M500.228 682.76C536.456 666.336 553.302 630.82 546.479 604.367C539.656 577.914 522.737 564.965 519.776 550.028C519.776 550.028 500.154 566.756 482.132 561.562C468.008 557.496 463.392 529.789 463.392 529.789C463.392 529.789 436.045 532.655 420.818 517.933C434.666 497.82 453.921 491.354 470.472 491.909C523.087 493.611 588.28 554.595 576.124 627.006C568.456 672.694 538.056 693.273 509.018 700.706C496.323 703.861 483.238 705.277 470.141 704.915C443.825 704.216 397.463 698.27 378.484 657.202V657.041C398.161 689.727 463.392 699.47 500.228 682.76Z" fill="black"/>
<path d="M532.429 523.718C520.825 532.225 541.367 553.216 560.768 580.421C573.753 598.725 583.437 619.052 589.402 640.528C591.076 649.16 616.565 659.1 638.302 644.396C666.347 625.411 651.58 603.579 651.58 603.579C640.315 585.787 626.918 569.362 611.673 554.649C581.678 526.279 545.1 514.422 532.429 523.718Z" fill="#3565AD"/>
<path opacity="0.5" d="M454.215 564.481C411.329 556.404 379.569 586.403 379.366 625.053C379.164 664.026 432.882 690.425 480.605 669.005C528.328 647.584 504.991 574.063 454.215 564.481Z" fill="#81B0DA"/>
<path d="M398.86 469.002C390.658 447.761 388.819 414.305 408.625 385.756C427.531 358.514 468.431 344.115 507.933 351.727C548.098 359.553 575.554 387.117 579.453 426.824C584.4 477.133 550.488 510.787 498.83 515.604C479.263 517.395 454.932 515.748 436.836 508.261C420.358 501.527 408.717 494.542 398.86 469.002Z" fill="#3565AD"/>
<path opacity="0.1" d="M490.977 516.07C493.626 516.07 496.255 515.927 498.885 515.694C550.544 510.966 584.455 477.223 579.508 426.913C578.05 412.2 572.917 398.058 564.557 385.72C566.286 388.389 560.438 397.666 560.438 397.666C566.764 410.4 572.391 428.203 567.371 446.023C559.684 473.175 538.774 502.011 490.977 516.07Z" fill="black"/>
<path d="M462.38 441.761C429.793 432.501 411.31 439.97 402.63 460.943C394.355 480.859 409.582 511.252 447.466 516.966C466.739 519.867 489.763 519.742 499.308 501.634C510.692 480.106 491.676 450.071 462.38 441.761Z" fill="#81B0DA"/>
<path d="M424.092 487.145C425.801 487.148 427.497 486.844 429.094 486.25C440.956 481.826 437.572 471.528 437.535 471.42C437.419 471.23 437.239 471.084 437.025 471.008C436.812 470.932 436.578 470.929 436.363 471C436.147 471.071 435.964 471.212 435.842 471.4C435.721 471.587 435.669 471.809 435.696 472.029C435.806 472.387 438.491 480.698 428.432 484.459C426.879 485.017 425.227 485.269 423.573 485.201C421.919 485.134 420.295 484.747 418.795 484.065C417.35 483.402 416.062 482.455 415.011 481.284C413.96 480.113 413.17 478.742 412.69 477.259C412.602 477.016 412.42 476.816 412.183 476.702C411.946 476.588 411.672 476.57 411.421 476.65C411.298 476.692 411.184 476.757 411.087 476.842C410.99 476.927 410.91 477.03 410.854 477.145C410.798 477.26 410.765 477.384 410.758 477.511C410.751 477.639 410.77 477.766 410.814 477.886C411.379 479.615 412.305 481.212 413.533 482.577C414.76 483.942 416.264 485.046 417.949 485.82C419.875 486.688 421.97 487.14 424.092 487.145Z" fill="#37474F"/>
<path d="M454.344 493.055C457.069 493.054 459.762 492.473 462.233 491.354C465.149 490.214 467.492 488.009 468.762 485.211C468.835 485.088 468.879 484.952 468.891 484.811C468.904 484.67 468.885 484.528 468.835 484.395C468.785 484.262 468.706 484.141 468.603 484.041C468.499 483.941 468.375 483.865 468.238 483.817C468.102 483.769 467.956 483.751 467.811 483.764C467.666 483.777 467.526 483.821 467.401 483.892C467.275 483.963 467.167 484.061 467.085 484.177C467.002 484.294 466.947 484.426 466.923 484.566C465.804 486.863 463.832 488.661 461.406 489.599C457.449 491.401 452.921 491.607 448.808 490.172C441.195 487.414 438.124 481.772 438.878 471.832C438.893 471.576 438.806 471.325 438.634 471.131C438.462 470.937 438.22 470.816 437.958 470.793C437.696 470.778 437.438 470.863 437.238 471.03C437.039 471.198 436.915 471.434 436.891 471.689C436.082 482.435 439.65 488.918 448.11 491.981C450.107 492.692 452.217 493.056 454.344 493.055Z" fill="#37474F"/>
<path d="M424.717 451.289C433.544 443.068 455.061 450.895 457.029 457.701C459.585 466.656 444.413 477.295 433.121 473.229C426.243 470.775 416.919 458.507 424.717 451.289Z" fill="#3565AD"/>
<path d="M545.651 386.884C544.524 382.737 545.029 378.329 547.068 374.526C551.923 365.571 566.635 348.879 588.427 356.294C620.224 367.129 619.801 418.585 574.028 419.337C570.25 419.425 566.561 418.221 563.6 415.934C552.529 407.32 547.674 394.55 545.651 386.884Z" fill="#3565AD"/>
<path d="M547.564 392.902C549.877 399.343 553.372 405.321 557.881 410.543C583.628 416.472 591.922 395.893 587.159 384.628C581.972 372.359 556.189 366.359 547.564 392.902Z" fill="#81B0DA"/>
<path d="M429.48 421.057C429.48 422.828 428.941 424.559 427.93 426.032C426.92 427.505 425.484 428.652 423.804 429.33C422.123 430.008 420.275 430.185 418.491 429.84C416.707 429.494 415.069 428.641 413.783 427.389C412.497 426.137 411.621 424.541 411.266 422.804C410.912 421.067 411.094 419.266 411.79 417.63C412.486 415.993 413.664 414.595 415.176 413.611C416.688 412.627 418.466 412.102 420.285 412.102C422.724 412.102 425.062 413.045 426.787 414.725C428.511 416.404 429.48 418.682 429.48 421.057Z" fill="#263238"/>
<path d="M505.818 436.979C505.822 438.964 505.221 440.906 504.09 442.558C502.96 444.21 501.352 445.498 499.469 446.259C497.587 447.021 495.514 447.221 493.515 446.835C491.516 446.448 489.679 445.493 488.237 444.089C486.796 442.685 485.815 440.896 485.418 438.949C485.021 437.002 485.227 434.984 486.009 433.15C486.79 431.317 488.113 429.751 489.81 428.65C491.506 427.549 493.5 426.964 495.538 426.967C498.265 426.967 500.879 428.022 502.807 429.899C504.735 431.777 505.818 434.324 505.818 436.979Z" fill="#263238"/>
<path d="M541.587 517.897C541.587 517.897 536.475 514.673 537.578 505.861C545.063 489.169 564.833 484.924 570.405 486.59C580.373 489.563 583.278 521.801 573.623 525.992C563.656 530.488 541.532 519.813 541.587 517.897Z" fill="#263238"/>
<path opacity="0.1" d="M543.463 509.533C547.601 507.312 564.667 496.781 566.12 500.255C567.959 504.643 547.417 510.769 547.417 510.769C547.417 510.769 568.29 510.267 567.389 515.246C566.782 518.595 545.21 513.294 545.21 513.294L543.463 509.533Z" fill="black"/>
<path d="M541.955 506.166C542.326 506.434 542.676 506.727 543.003 507.043C544.447 508.404 545.534 510.082 546.174 511.936C546.814 513.79 546.988 515.767 546.681 517.7C545.946 521.282 542.268 523.807 539.031 525.025C536.799 525.872 534.404 526.23 532.014 526.075C529.624 525.921 527.299 525.256 525.202 524.13C523.37 522.989 521.925 521.347 521.048 519.41C520.171 517.473 519.902 515.326 520.273 513.24C522.075 504.285 534.948 501.097 541.955 506.166Z" fill="#263238"/>
<path opacity="0.2" d="M541.955 506.166C542.326 506.434 542.676 506.727 543.003 507.043C544.447 508.404 545.534 510.082 546.174 511.936C546.814 513.79 546.988 515.767 546.681 517.7C545.946 521.282 542.268 523.807 539.031 525.025C536.799 525.872 534.404 526.23 532.014 526.075C529.624 525.921 527.299 525.256 525.202 524.13C523.37 522.989 521.925 521.347 521.048 519.41C520.171 517.473 519.902 515.326 520.273 513.24C522.075 504.285 534.948 501.097 541.955 506.166Z" fill="black"/>
<path d="M524.981 511.897C522.553 506.524 497.285 491.891 483.97 502.817C477.037 508.512 484.761 538.404 493.644 540.983C506.517 544.744 523.785 531.491 526.084 522.07C526.661 520.397 526.862 518.622 526.671 516.866C526.481 515.111 525.904 513.416 524.981 511.897Z" fill="#263238"/>
<path opacity="0.1" d="M526.176 514.691C526.393 515.49 526.546 516.305 526.636 517.127C525.091 518.918 505.193 528.607 504.384 525.258C503.575 521.909 522.48 515.927 522.48 515.927C522.48 515.927 499.749 514.261 500.651 510.267C501.294 507.652 523.51 512.882 526.176 514.691Z" fill="black"/>
<path d="M569.173 774.567C565.807 781.928 555.601 792.943 531.381 797.206C507.473 801.397 494.986 796.865 489.745 788.358C487.906 782.985 485.295 773.689 497.653 766.06C505.892 760.955 514.738 756.764 514.738 756.764L569.173 774.567Z" fill="#3565AD"/>
</svg>
